<svg id="Layer_1" data-name="Layer 1" xmlns="http://www.w3.org/2000/svg" xmlns:xlink="http://www.w3.org/1999/xlink" viewBox="0 0 500 500.25"><defs><linearGradient id="linear-gradient" x1="282.99" y1="367.33" x2="282.99" y2="12.94" gradientUnits="userSpaceOnUse"><stop offset="0" stop-color="#ffefc5"/><stop offset="1" stop-color="#f49523"/></linearGradient><linearGradient id="linear-gradient-2" x1="278.55" y1="367.33" x2="278.55" y2="12.94" xlink:href="#linear-gradient"/><linearGradient id="linear-gradient-3" x1="256.17" y1="367.32" x2="256.17" y2="12.95" xlink:href="#linear-gradient"/><linearGradient id="linear-gradient-4" x1="307.61" y1="367.32" x2="307.61" y2="12.95" xlink:href="#linear-gradient"/><linearGradient id="linear-gradient-5" x1="314.39" y1="367.32" x2="314.39" y2="12.95" xlink:href="#linear-gradient"/><linearGradient id="linear-gradient-6" x1="293.1" y1="367.33" x2="293.1" y2="12.94" gradientUnits="userSpaceOnUse"><stop offset="0" stop-color="#ffefc5"/><stop offset="1" stop-color="#ffd550"/></linearGradient><linearGradient id="linear-gradient-7" x1="257.61" y1="367.32" x2="257.61" y2="12.95" xlink:href="#linear-gradient"/><linearGradient id="linear-gradient-8" x1="263.44" y1="367.32" x2="263.44" y2="12.95" xlink:href="#linear-gradient"/><linearGradient id="linear-gradient-9" x1="232.69" y1="367.32" x2="232.69" y2="12.95" xlink:href="#linear-gradient"/><linearGradient id="linear-gradient-10" x1="106.97" y1="367.32" x2="106.97" y2="12.95" xlink:href="#linear-gradient"/><linearGradient id="linear-gradient-11" x1="353.4" y1="367.32" x2="353.4" y2="12.95" xlink:href="#linear-gradient"/><linearGradient id="linear-gradient-12" x1="210.77" y1="367.33" x2="210.77" y2="12.94" xlink:href="#linear-gradient"/><linearGradient id="linear-gradient-13" x1="36.14" y1="367.34" x2="36.14" y2="13.36" xlink:href="#linear-gradient-6"/><linearGradient id="linear-gradient-14" x1="164.49" y1="367.32" x2="164.49" y2="12.95" xlink:href="#linear-gradient"/><linearGradient id="linear-gradient-15" x1="260.8" y1="367.33" x2="260.8" y2="12.94" xlink:href="#linear-gradient"/><linearGradient id="linear-gradient-16" x1="403.85" y1="367.32" x2="403.85" y2="12.95" xlink:href="#linear-gradient"/><linearGradient id="linear-gradient-17" x1="238.04" y1="367.32" x2="238.04" y2="12.95" xlink:href="#linear-gradient-6"/><linearGradient id="linear-gradient-18" x1="259.89" y1="367.32" x2="259.89" y2="12.95" xlink:href="#linear-gradient"/><linearGradient id="linear-gradient-19" x1="209.41" y1="367.33" x2="209.41" y2="12.95" xlink:href="#linear-gradient"/><linearGradient id="linear-gradient-20" x1="261.1" y1="367.32" x2="261.1" y2="12.95" xlink:href="#linear-gradient"/><linearGradient id="linear-gradient-21" x1="246.8" y1="367.34" x2="246.8" y2="12.93" xlink:href="#linear-gradient-6"/><linearGradient id="linear-gradient-22" x1="240.26" y1="367.33" x2="240.26" y2="12.94" xlink:href="#linear-gradient"/><linearGradient id="linear-gradient-23" x1="287.45" y1="367.32" x2="287.45" y2="12.95" xlink:href="#linear-gradient"/><linearGradient id="linear-gradient-24" x1="283.08" y1="367.32" x2="283.08" y2="12.95" xlink:href="#linear-gradient"/></defs><polygon points="286.54 231.53 281.73 229.19 278.56 240.56 287.42 236.27 286.54 231.53" style="fill:url(#linear-gradient)"/><polygon points="274.23 213.81 281.27 217.5 282.87 211.75 282.48 209.63 274.23 213.81" style="fill:url(#linear-gradient-2)"/><polygon points="234.27 234.03 233.88 235.97 259.87 249.62 274.29 242.64 278.47 227.6 262.42 219.79 234.27 234.03" style="fill:url(#linear-gradient-3)"/><polygon points="320.03 171.25 297.83 171.25 295.19 180.73 297.2 186.8 320.03 171.25" style="fill:url(#linear-gradient-4)"/><polygon points="306.25 214.24 327.23 180.41 301.55 199.98 306.25 214.24" style="fill:url(#linear-gradient-5)"/><polygon points="293.19 174.65 294.13 171.25 292.06 171.25 293.19 174.65" style="fill:url(#linear-gradient-6)"/><path d="M305.4,333.12,260,310.84l-45.61,23.57h0L208,353l-.6.33c14-.75,28.2-1.17,42.65-1.17,19.61,0,39,.83,57.88,2.24h-.06Z" style="fill:url(#linear-gradient-7)"/><path d="M231.18,158.55h1.35l27.34-84.84,28,84.84h9.79l39.7-142.83A250.54,250.54,0,0,0,189.53,7.41Z" style="fill:url(#linear-gradient-8)"/><polygon points="223.19 289.98 217.25 319.97 248.13 306.27 223.19 289.98" style="fill:url(#linear-gradient-9)"/><path d="M35.75,378.87h0a.75.75,0,0,1-.07-.12,996.37,996.37,0,0,1,133.14-22.51l45.1-140-21.21-30.41-56.14-27.32h37.08L98.67,51A250,250,0,0,0,35.75,378.87Z" style="fill:url(#linear-gradient-10)"/><path d="M301.36,158.55h39.43L405.45,54.28A249.53,249.53,0,0,0,340.7,17Z" style="fill:url(#linear-gradient-11)"/><polygon points="193.09 171.25 223.33 187.11 228.44 171.25 193.09 171.25" style="fill:url(#linear-gradient-12)"/><path d="M36,379.36l.19.34c-.06-.11-.12-.23-.19-.34Z" style="fill:url(#linear-gradient-13)"/><path d="M178,158.55h49.48L186.07,8.28a249.14,249.14,0,0,0-84.56,40.61Z" style="fill:url(#linear-gradient-14)"/><polygon points="279.92 195.84 275.35 171.25 246.7 171.25 241.67 196.62 241.71 196.75 259.92 206.3 279.92 195.84" style="fill:url(#linear-gradient-15)"/><path d="M345,158.55h10.95l-20.76,15.81-27.46,44.29L354,359a1057.72,1057.72,0,0,1,110.09,20.05A250,250,0,0,0,408.26,56.49Z" style="fill:url(#linear-gradient-16)"/><polygon points="247.7 254.37 231.33 248.85 228.39 263.72 247.7 254.37" style="fill:url(#linear-gradient-17)"/><polygon points="225.12 280.24 257.12 298.6 294.67 278.47 261.49 261.68 225.34 279.11 225.12 280.24" style="fill:url(#linear-gradient-18)"/><polygon points="199.28 189.06 215.3 212.02 219.53 198.91 199.28 189.06" style="fill:url(#linear-gradient-19)"/><polygon points="249.22 158.55 272.99 158.55 261.49 96.57 249.22 158.55" style="fill:url(#linear-gradient-20)"/><polygon points="245.83 211.72 246.31 213.43 247.77 212.66 245.83 211.72" style="fill:url(#linear-gradient-21)"/><path d="M237.43,218.08l5.66-3s0,0,0-.05l-1.5-5.42-2.25-1.1Z" style="fill:url(#linear-gradient-22)"/><polygon points="303.24 321.45 297.59 291.05 271.67 305.9 303.24 321.45" style="fill:url(#linear-gradient-23)"/><polygon points="289.27 246.23 273.38 254.37 292.78 265.14 289.27 246.23" style="fill:url(#linear-gradient-24)"/><path d="M137,374.53q12.73.5,25.46,1.49l6.38-19.78A996.37,996.37,0,0,0,35.69,378.75a.75.75,0,0,0,.07.12c16.22-2.3,32.6-3.56,49-4.26Q110.83,373.53,137,374.53Z" style="fill:#010101"/><path d="M356.31,447.09c-7.49-3.94-14.82-8.24-22.52-11.83A520.78,520.78,0,0,0,238,399.37,627.55,627.55,0,0,0,136.54,381q-25.77-2.52-51.74-3c-16.25-.27-32.54,0-48.76,1.33.07.11.13.23.19.34a250,250,0,0,0,345.32,82.88c-1.19-.77-2.35-1.58-3.56-2.33C371,455.5,363.55,451.48,356.31,447.09Z" style="fill:#774211;stroke:#676767;stroke-miterlimit:10;stroke-width:0.5px"/><path d="M357.76,370.3l-49.88-15.92C289,353,269.61,352.14,250,352.14c-14.45,0-28.7.42-42.65,1.17l-41,23A623,623,0,0,1,241,387a536.84,536.84,0,0,1,100.73,31.1c8.22,3.26,16.11,7.26,24.17,10.92,7.83,4.12,15.88,7.88,23.51,12.42,4.18,2.27,8.29,4.66,12.36,7.12a251.36,251.36,0,0,0,62.34-69.52A1057.72,1057.72,0,0,0,354,359Z" style="fill:#010101"/><polygon points="344.98 158.55 335.17 174.36 355.93 158.55 344.98 158.55" style="fill:#010101"/><polygon points="136.58 158.55 192.72 185.87 173.66 158.55 136.58 158.55" style="fill:#010101"/><path d="M166.36,376.35l41-23,.6-.33,6.44-18.57h0L260,310.84l45.4,22.28,2.42,21.25h.06l49.88,15.92L354,359,307.71,218.65l-5.39,8.69a1.77,1.77,0,0,1-1.52.84,1.77,1.77,0,0,1-1.52-2.69l7-11.25L301.55,200l25.68-19.57,13.56-21.86H301.36l-3.53,12.7H320L297.2,186.8l-2-6.07-13.47,48.46,4.82,2.34.88,4.74-8.86,4.3-2.3,8.28a1.78,1.78,0,0,1-1.72,1.3,2,2,0,0,1-.48-.06,1.78,1.78,0,0,1-1.24-2.18l1.47-5.27-14.42,7-26-13.65.39-1.93,28.15-14.25,16.05,7.81,2.8-10.1-7-3.69,8.25-4.18.39,2.12,10.32-37.11-1.13-3.39h2.07l3.53-12.7h-9.79l-28-84.84-27.34,84.84h-1.35l10.49,38.07,5-25.37h28.65l4.57,24.59-20,10.46-18.21-9.55,4.12,15,1.94.94-1.46.77.19.69a1.77,1.77,0,0,1-1.25,2.18,2,2,0,0,1-.48.06,1.77,1.77,0,0,1-1.68-1.25l-5.66,3,1.88-9.54,2.25,1.1-14.08-51.09H178l21.28,30.51,20.25,9.85L215.3,212l9.33,13.37a1.77,1.77,0,0,1-.45,2.47,1.82,1.82,0,0,1-1,.31,1.76,1.76,0,0,1-1.46-.76l-7.77-11.13-45.1,140L162.45,376C163.76,376.12,165.06,376.24,166.36,376.35Zm82.86-217.8,12.27-62,11.5,62ZM297.59,291l5.65,30.41L271.67,305.9Zm-8.32-44.81,3.51,18.91-19.4-10.77Zm-27.78,15.45,33.18,16.79L257.12,298.6l-32-18.36.22-1.13Zm-13.79-7.31-19.31,9.35,2.94-14.87Zm-24.37-67.26-30.24-15.86h35.35ZM223.19,290l24.94,16.29L217.25,320Z" style="fill:#010101"/><path d="M173.66,158.55l19.06,27.32,21.21,30.41,7.77,11.13a1.76,1.76,0,0,0,1.46.76,1.82,1.82,0,0,0,1-.31,1.77,1.77,0,0,0,.45-2.47L215.3,212l-16-23L178,158.55,101.51,48.89c-1,.71-1.9,1.43-2.84,2.15Z" style="fill:#010101"/><path d="M227.48,158.55l14.08,51.09,1.5,5.42s0,0,0,.05a1.77,1.77,0,0,0,1.68,1.25,2,2,0,0,0,.48-.06,1.77,1.77,0,0,0,1.25-2.18l-.19-.69-.48-1.71-4.12-15,0-.13-10.49-38.07L189.53,7.41c-1.16.28-2.31.57-3.46.87Z" style="fill:#010101"/><path d="M297.66,158.55l-3.53,12.7-.94,3.39-10.32,37.11-1.6,5.75-2.8,10.1-4.18,15-1.47,5.27a1.78,1.78,0,0,0,1.24,2.18,2,2,0,0,0,.48.06,1.78,1.78,0,0,0,1.72-1.3l2.3-8.28,3.16-11.38,13.47-48.46,2.64-9.48,3.53-12.7L340.7,17c-1.12-.44-2.22-.9-3.34-1.32Z" style="fill:#010101"/><path d="M340.79,158.55l-13.56,21.86-21,33.83-7,11.25a1.78,1.78,0,0,0,3,1.85l5.39-8.69,27.46-44.29L345,158.55,408.26,56.49c-.92-.76-1.88-1.47-2.81-2.21Z" style="fill:#010101"/><path d="M365.92,429.06c-8.06-3.66-15.95-7.66-24.17-10.92A536.84,536.84,0,0,0,241,387a623,623,0,0,0-74.66-10.69c-1.3-.11-2.6-.23-3.91-.33q-12.72-1-25.46-1.49-26.13-1-52.23.08c-16.4.7-32.78,2-49,4.26h0l.29.49h0c16.22-1.31,32.51-1.6,48.76-1.33q26,.47,51.74,3A627.55,627.55,0,0,1,238,399.37a520.78,520.78,0,0,1,95.75,35.89c7.7,3.59,15,7.89,22.52,11.83,7.24,4.39,14.69,8.41,21.68,13.16,1.21.75,2.37,1.56,3.56,2.33q10.47-6.49,20.24-14c-4.07-2.46-8.18-4.85-12.36-7.12C381.8,436.94,373.75,433.18,365.92,429.06Z" style="fill:#f49523;stroke:#f39200;stroke-miterlimit:10;stroke-width:2px;isolation:isolate"/></svg>