<svg id="Layer_1" data-name="Layer 1" xmlns="http://www.w3.org/2000/svg" xmlns:xlink="http://www.w3.org/1999/xlink" viewBox="0 0 506.31 123.09"><defs><linearGradient id="linear-gradient" x1="66.43" y1="89.39" x2="66.43" y2="6.19" gradientUnits="userSpaceOnUse"><stop offset="0" stop-color="#ffefc5"/><stop offset="1" stop-color="#f49523"/></linearGradient><linearGradient id="linear-gradient-2" x1="65.39" y1="89.39" x2="65.39" y2="6.19" xlink:href="#linear-gradient"/><linearGradient id="linear-gradient-3" x1="60.14" y1="89.39" x2="60.14" y2="6.19" xlink:href="#linear-gradient"/><linearGradient id="linear-gradient-4" x1="72.21" y1="89.38" x2="72.21" y2="6.19" xlink:href="#linear-gradient"/><linearGradient id="linear-gradient-5" x1="73.8" y1="89.39" x2="73.8" y2="6.19" xlink:href="#linear-gradient"/><linearGradient id="linear-gradient-6" x1="68.81" y1="89.39" x2="68.81" y2="6.19" gradientUnits="userSpaceOnUse"><stop offset="0" stop-color="#ffefc5"/><stop offset="1" stop-color="#ffd550"/></linearGradient><linearGradient id="linear-gradient-7" x1="60.48" y1="89.39" x2="60.48" y2="6.19" xlink:href="#linear-gradient"/><linearGradient id="linear-gradient-8" x1="61.84" y1="89.38" x2="61.84" y2="6.19" xlink:href="#linear-gradient"/><linearGradient id="linear-gradient-9" x1="54.62" y1="89.39" x2="54.62" y2="6.19" xlink:href="#linear-gradient"/><linearGradient id="linear-gradient-10" x1="25.11" y1="89.39" x2="25.11" y2="6.19" xlink:href="#linear-gradient"/><linearGradient id="linear-gradient-11" x1="82.96" y1="89.38" x2="82.96" y2="6.19" xlink:href="#linear-gradient"/><linearGradient id="linear-gradient-12" x1="49.48" y1="89.39" x2="49.48" y2="6.19" xlink:href="#linear-gradient"/><linearGradient id="linear-gradient-13" x1="8.48" y1="89.39" x2="8.48" y2="6.29" xlink:href="#linear-gradient-6"/><linearGradient id="linear-gradient-14" x1="38.62" y1="89.39" x2="38.62" y2="6.19" xlink:href="#linear-gradient"/><linearGradient id="linear-gradient-15" x1="61.22" y1="89.39" x2="61.22" y2="6.19" xlink:href="#linear-gradient"/><linearGradient id="linear-gradient-16" x1="94.81" y1="89.39" x2="94.81" y2="6.19" xlink:href="#linear-gradient"/><linearGradient id="linear-gradient-17" x1="55.88" y1="89.39" x2="55.88" y2="6.19" xlink:href="#linear-gradient-6"/><linearGradient id="linear-gradient-18" x1="61.01" y1="89.39" x2="61.01" y2="6.19" xlink:href="#linear-gradient"/><linearGradient id="linear-gradient-19" x1="49.16" y1="89.39" x2="49.16" y2="6.19" xlink:href="#linear-gradient"/><linearGradient id="linear-gradient-20" x1="61.29" y1="89.38" x2="61.29" y2="6.19" xlink:href="#linear-gradient"/><linearGradient id="linear-gradient-21" x1="57.94" y1="89.39" x2="57.94" y2="6.19" xlink:href="#linear-gradient-6"/><linearGradient id="linear-gradient-22" x1="56.4" y1="89.39" x2="56.4" y2="6.19" xlink:href="#linear-gradient"/><linearGradient id="linear-gradient-23" x1="67.48" y1="89.39" x2="67.48" y2="6.19" xlink:href="#linear-gradient"/><linearGradient id="linear-gradient-24" x1="66.45" y1="89.39" x2="66.45" y2="6.19" xlink:href="#linear-gradient"/></defs><g style="isolation:isolate"><path d="M253.35,3.44,239.89,119.65H202.17Q197,92.86,193,58.71q-1.82,14.64-8.43,60.94H147.08L133.55,3.44h29.36L166.1,44l3.09,39.2q1.67-30.43,8.35-79.75h31.38q.63,5.1,3.3,38.33L215.56,86q2.58-42.2,8.43-82.54Z" style="fill:#f49523;stroke:#f39200;stroke-miterlimit:10;stroke-width:2px"/><path d="M300.11,3.44V119.65H269.89V3.44Z" style="fill:#f49523;stroke:#f39200;stroke-miterlimit:10;stroke-width:2px"/><path d="M416.06,3.44V119.65H389.65l0-78.45L379.1,119.65H360.36L349.27,43l0,76.66H322.82V3.44h39.1q1.74,10.49,3.59,24.71L369.8,57.7l6.95-54.26Z" style="fill:#f49523;stroke:#f39200;stroke-miterlimit:10;stroke-width:2px"/><path d="M502.8,38.61H474.74V30q0-6-1.08-7.68a4,4,0,0,0-3.59-1.65,4.58,4.58,0,0,0-4.13,2.22q-1.4,2.23-1.4,6.76c0,3.87.53,6.8,1.58,8.76s3.85,4.33,8.54,7.1q20.18,12,25.41,19.66t5.24,24.76q0,12.42-2.9,18.31t-11.24,9.86a44.37,44.37,0,0,1-19.38,4q-12.12,0-20.7-4.6T439.85,105.8q-2.66-7.11-2.65-20.17V78h28.06V92.16q0,6.53,1.19,8.4t4.2,1.86a4.92,4.92,0,0,0,4.48-2.37q1.47-2.37,1.47-7,0-10.26-2.8-13.42T459.66,69.05q-11.27-7.47-14.93-10.84a25.34,25.34,0,0,1-6.06-9.33q-2.42-6-2.41-15.22,0-13.35,3.41-19.52t11-9.66Q458.29,1,469.07,1q11.76,0,20.06,3.8t11,9.59q2.68,5.77,2.69,19.63Z" style="fill:#f49523;stroke:#f39200;stroke-miterlimit:10;stroke-width:2px"/></g><polygon points="67.27 57.51 66.14 56.96 65.39 59.63 67.47 58.62 67.27 57.51" style="fill:url(#linear-gradient)"/><polygon points="64.38 53.35 66.03 54.21 66.41 52.86 66.31 52.37 64.38 53.35" style="fill:url(#linear-gradient-2)"/><polygon points="54.99 58.09 54.91 58.55 61.01 61.75 64.39 60.11 65.37 56.59 61.6 54.75 54.99 58.09" style="fill:url(#linear-gradient-3)"/><polygon points="75.13 43.35 69.92 43.35 69.3 45.58 69.77 47.01 75.13 43.35" style="fill:url(#linear-gradient-4)"/><polygon points="71.89 53.45 76.82 45.51 70.79 50.1 71.89 53.45" style="fill:url(#linear-gradient-5)"/><polygon points="68.83 44.15 69.05 43.35 68.56 43.35 68.83 44.15" style="fill:url(#linear-gradient-6)"/><path d="M71.69,81.36,61,76.13,50.33,81.66h0L48.82,86l-.14.08c3.27-.18,6.62-.28,10-.28,4.6,0,9.15.2,13.58.53h0Z" style="fill:url(#linear-gradient-7)"/><path d="M54.27,40.37h.32L61,20.46l6.57,19.91h2.3L79.2,6.85a58.74,58.74,0,0,0-34.71-2Z" style="fill:url(#linear-gradient-8)"/><polygon points="52.39 71.23 51 78.27 58.25 75.05 52.39 71.23" style="fill:url(#linear-gradient-9)"/><path d="M8.39,92.09h0v0a233,233,0,0,1,31.25-5.29L50.22,53.93l-5-7.14L32.06,40.37h8.71L23.16,15.14a58.69,58.69,0,0,0-14.77,77Z" style="fill:url(#linear-gradient-10)"/><path d="M70.75,40.37H80L95.18,15.9A58.82,58.82,0,0,0,80,7.15Z" style="fill:url(#linear-gradient-11)"/><polygon points="45.33 43.35 52.43 47.08 53.63 43.35 45.33 43.35" style="fill:url(#linear-gradient-12)"/><path d="M8.46,92.21l0,.08,0-.08Z" style="fill:url(#linear-gradient-13)"/><path d="M41.79,40.37H53.4L43.68,5.1a58.59,58.59,0,0,0-19.85,9.53Z" style="fill:url(#linear-gradient-14)"/><polygon points="65.71 49.13 64.64 43.35 57.91 43.35 56.73 49.31 56.74 49.34 61.02 51.59 65.71 49.13" style="fill:url(#linear-gradient-15)"/><path d="M81,40.37h2.58l-4.88,3.72L72.24,54.48l10.87,33A248.68,248.68,0,0,1,109,92.14,58.68,58.68,0,0,0,95.84,16.42Z" style="fill:url(#linear-gradient-16)"/><polygon points="58.15 62.87 54.31 61.57 53.62 65.06 58.15 62.87" style="fill:url(#linear-gradient-17)"/><polygon points="52.85 68.94 60.36 73.25 69.17 68.53 61.38 64.58 52.9 68.68 52.85 68.94" style="fill:url(#linear-gradient-18)"/><polygon points="46.78 47.54 50.54 52.93 51.53 49.85 46.78 47.54" style="fill:url(#linear-gradient-19)"/><polygon points="58.5 40.37 64.09 40.37 61.38 25.83 58.5 40.37" style="fill:url(#linear-gradient-20)"/><polygon points="57.71 52.86 57.82 53.26 58.16 53.08 57.71 52.86" style="fill:url(#linear-gradient-21)"/><path d="M55.74,54.35l1.33-.7h0l-.35-1.27-.53-.26Z" style="fill:url(#linear-gradient-22)"/><polygon points="71.19 78.62 69.86 71.48 63.77 74.97 71.19 78.62" style="fill:url(#linear-gradient-23)"/><polygon points="67.91 60.96 64.18 62.87 68.73 65.4 67.91 60.96" style="fill:url(#linear-gradient-24)"/><path d="M32.16,91.08c2,.08,4,.19,6,.35l1.49-4.65A233,233,0,0,0,8.38,92.07v0c3.81-.53,7.66-.83,11.51-1Q26,90.85,32.16,91.08Z" style="fill:#010101"/><path d="M83.65,108.11c-1.76-.92-3.48-1.93-5.29-2.78a122,122,0,0,0-22.48-8.42A146.94,146.94,0,0,0,32.05,92.6q-6-.59-12.14-.7c-3.82-.06-7.64,0-11.45.31l0,.08a58.7,58.7,0,0,0,81.06,19.46l-.84-.55C87.09,110.08,85.34,109.14,83.65,108.11Z" style="fill:#774211;stroke:#676767;stroke-miterlimit:10;stroke-width:0.5px"/><path d="M84,90.08,72.27,86.35c-4.43-.33-9-.53-13.58-.53-3.39,0-6.74.1-10,.28l-9.63,5.4A146.5,146.5,0,0,1,56.58,94a126.79,126.79,0,0,1,23.65,7.3c1.93.77,3.78,1.71,5.67,2.57s3.73,1.85,5.52,2.91c1,.54,1.94,1.1,2.9,1.67A58.87,58.87,0,0,0,109,92.14a248.68,248.68,0,0,0-25.85-4.7Z" style="fill:#010101"/><polygon points="80.98 40.37 78.68 44.09 83.56 40.37 80.98 40.37" style="fill:#010101"/><polygon points="32.06 40.37 45.24 46.79 40.77 40.37 32.06 40.37" style="fill:#010101"/><path d="M39.05,91.5l9.63-5.4.14-.08,1.51-4.36h0L61,76.13l10.65,5.23.57,5h0L84,90.08l-.88-2.64-10.87-33-1.27,2a.42.42,0,0,1-.36.2.46.46,0,0,1-.22-.06.42.42,0,0,1-.13-.57l1.63-2.64-1.1-3.35,6-4.59L80,40.37H70.75l-.83,3h5.21L69.77,47l-.47-1.43L66.14,57l1.13.55.2,1.11-2.08,1-.54,1.94a.41.41,0,0,1-.4.31l-.11,0a.4.4,0,0,1-.29-.51l.34-1.24L61,61.75l-6.11-3.2L55,58.1l6.61-3.35,3.77,1.83L66,54.21l-1.65-.86,1.93-1,.09.49,2.43-8.71-.27-.79h.49l.83-3h-2.3L61,20.46,54.59,40.37h-.32l2.46,8.94,1.18-6h6.73l1.07,5.77L61,51.59l-4.28-2.25,1,3.52.46.22-.35.18,0,.16a.41.41,0,0,1-.3.51l-.11,0a.41.41,0,0,1-.39-.3l-1.33.7.44-2.24.53.26-3.31-12H41.79l5,7.17,4.75,2.31-1,3.08,2.19,3.14a.4.4,0,0,1-.1.57.46.46,0,0,1-.24.08.42.42,0,0,1-.35-.18l-1.82-2.61L39.63,86.78l-1.49,4.65ZM58.5,40.37l2.88-14.54,2.71,14.54ZM69.86,71.48l1.33,7.14L63.77,75ZM67.91,61l.82,4.44-4.55-2.53Zm-6.53,3.63,7.79,3.94-8.81,4.72-7.51-4.31,0-.26Zm-3.23-1.72-4.54,2.19.7-3.49ZM52.43,47.08l-7.1-3.72h8.3Zm0,24.15,5.86,3.82L51,78.27Z" style="fill:#010101"/><path d="M40.77,40.37l4.47,6.42,5,7.14L52,56.54a.42.42,0,0,0,.35.18.46.46,0,0,0,.24-.08.4.4,0,0,0,.1-.57l-2.19-3.14-3.76-5.39-5-7.17-18-25.74-.67.51Z" style="fill:#010101"/><path d="M53.4,40.37l3.31,12,.35,1.27h0a.41.41,0,0,0,.39.3l.11,0a.41.41,0,0,0,.3-.51l0-.16-.11-.4-1-3.52v0l-2.46-8.94L44.49,4.89l-.81.21Z" style="fill:#010101"/><path d="M69.88,40.37l-.83,3-.22.79L66.4,52.86,66,54.21l-.66,2.37-1,3.53-.34,1.24a.4.4,0,0,0,.29.51l.11,0a.41.41,0,0,0,.4-.31l.54-1.94L66.14,57,69.3,45.58l.62-2.22.83-3L80,7.15l-.78-.3Z" style="fill:#010101"/><path d="M80,40.37l-3.18,5.14-4.93,7.94-1.63,2.64a.42.42,0,0,0,.13.57.46.46,0,0,0,.22.06.42.42,0,0,0,.36-.2l1.27-2,6.44-10.39L81,40.37,95.84,16.42l-.66-.52Z" style="fill:#010101"/><path d="M85.9,103.88c-1.89-.86-3.74-1.8-5.67-2.57A126.79,126.79,0,0,0,56.58,94,146.5,146.5,0,0,0,39.05,91.5l-.91-.07c-2-.16-4-.27-6-.35q-6.13-.24-12.26,0c-3.85.16-7.7.46-11.51,1h0a.75.75,0,0,1,.07.12h0c3.81-.31,7.63-.37,11.45-.31q6.09.1,12.14.7a146.94,146.94,0,0,1,23.83,4.31,122,122,0,0,1,22.48,8.42c1.81.85,3.53,1.86,5.29,2.78s3.44,2,5.08,3.09l.84.55q2.46-1.53,4.75-3.29c-1-.57-1.92-1.13-2.9-1.67C89.63,105.73,87.74,104.85,85.9,103.88Z" style="fill:#f49523;stroke:#f39200;stroke-miterlimit:10;stroke-width:2px;isolation:isolate"/></svg>